<?xml version="1.0" encoding="utf-8"?>
<!-- Generator: Adobe Illustrator 19.2.0, SVG Export Plug-In . SVG Version: 6.00 Build 0)  -->
<svg version="1.1" id="Layer_1" xmlns="http://www.w3.org/2000/svg" xmlns:xlink="http://www.w3.org/1999/xlink" x="0px" y="0px"
	 viewBox="0 0 16 16" style="enable-background:new 0 0 16 16;" xml:space="preserve">
<g id="Layer_1_1_">
	<path fill="#d92015" d="M14.8,12.5L9.3,1.9C9,1.3,8.5,1,8,1S7,1.3,6.7,1.9L1.2,12.5c-0.3,0.6-0.3,1.2,0,1.7S2,15,2.6,15h10.8
		c0.6,0,1.1-0.3,1.4-0.8C15.1,13.7,15.1,13.1,14.8,12.5z"/>
	<path fill="#fff" d="M8,11c-0.8,0-1.5,0.7-1.5,1.5S7.2,14,8,14s1.5-0.7,1.5-1.5S8.8,11,8,11z M8,10L8,10c0.6,0,1-0.4,1-1l0.2-4.2
		c0-0.7-0.5-1.2-1.2-1.2S6.8,4.1,6.8,4.8L7,9C7,9.6,7.4,10,8,10z"/>
</g>
</svg>
